<svg enable-background="new 0 0 110 110" height="512" viewBox="0 0 110 110" width="512" xmlns="http://www.w3.org/2000/svg"><path d="m94.5449905 29.8570957-4.0102158-4.0102139c-6.9352646-6.9352665-18.2227631-6.935194-25.1580353.0000725l-17.1906623 17.1906624c-6.9411697 6.9411697-6.9353371 18.2227707-.0000725 25.1580391l4.0102158 4.0102081c3.3614502 3.3614502 7.8257713 5.2192001 12.5731506 5.213295 4.7532806 0 9.2233658-1.8516998 12.5849533-5.213295l17.1906662-17.1906586c6.9352646-6.9352683 6.9352646-18.2228431 0-25.1581096zm-39.2821159 20.2573185 17.1906624-17.1906624c1.5156555-1.5156536 3.5088882-2.2703857 5.502327-2.2704582 1.9932327 0 3.9865341.7548046 5.5021133 2.2703857l4.0102158 4.0102158c3.0371399 3.0371399 3.031311 7.9732018 0 11.0045128l-17.1906662 17.1906586c-1.4743271 1.4743347-3.426384 2.282341-5.5022507 2.282341-2.0758743 0-4.0338287-.8139114-5.5022583-2.282341l-4.0161171-4.0043068c-3.0252609-3.0370674-3.0312386-7.9731331.0059738-11.0103455z" fill="#ededed"/><path d="m88.9130096 34.2859993-2.8012314-2.8012333c-4.8416824-4.8416862-13.0920486-4.4818859-18.37603.8020992l-13.1097602 13.1097565c-5.2898865 5.2898903-5.6496887 13.5402489-.8080025 18.3819351l2.8071365 2.7953262c2.3353195 2.3471298 5.5493355 3.5561142 9.0170441 3.4027786 3.4675598-.1531982 6.793663-1.6512146 9.353157-4.2107086l13.1097565-13.1097527c5.2839814-5.283985 5.6496201-13.5285148.80793-18.370201zm-18.6354827 30.8430672c-1.4743271 1.4743347-3.426384 2.282341-5.5022507 2.282341-2.0758743 0-4.0338287-.8139114-5.5022583-2.282341l-4.0161171-4.0043068c-3.0252609-3.0370674-3.0312386-7.9731331.0059738-11.0103455l17.1906624-17.1906624c1.5156555-1.5156536 3.5088882-2.2703857 5.502327-2.2704582 1.9932327 0 3.9865341.7548046 5.5021133 2.2703857l4.0102158 4.0102158c3.0371399 3.0371399 3.031311 7.9732018 0 11.0045128z" fill="#dbd8dd"/><path d="m61.8161736 41.7924538-4.0102158-4.0102119c-6.9352684-6.9352684-18.2227669-6.9351959-25.1580353.0000725l-17.1906633 17.1906623c-6.9411697 6.9411697-6.935339 18.2227707-.0000715 25.1580353l4.0102139 4.0102158c3.3614502 3.3614502 7.8257694 5.2191925 12.5731487 5.2132874 4.7532845 0 9.2233658-1.8516922 12.5849571-5.2132874l17.1906662-17.1906662c6.9352684-6.9352685 6.9352684-18.2228394 0-25.1581078zm-39.282116 20.2573204 17.1906624-17.1906624c1.5156555-1.5156555 3.5088844-2.2703857 5.502327-2.2704582 1.9932289 0 3.9865303.7548027 5.5021133 2.2703857l4.0102158 4.0102119c3.0371399 3.0371399 3.0313072 7.9732056 0 11.0045128l-17.1906662 17.1906662c-1.4743309 1.4743271-3.426384 2.2823334-5.5022545 2.2823334s-4.0338268-.8139038-5.5022564-2.2823334l-4.0161171-4.0043106c-3.0252609-3.0370712-3.0312367-7.9731369.0059757-11.0103454z" fill="#de594e"/><path d="m56.1841927 46.2213554-2.8012352-2.8012314c-4.8416824-4.8416862-13.0920448-4.481884-18.37603.8021011l-13.1097565 13.1097566c-5.2898884 5.2898865-5.6496887 13.5402489-.8080044 18.3819313l2.8071365 2.7953339c2.3353195 2.3471222 5.5493374 3.5561066 9.0170422 3.402771 3.4675636-.1531906 6.7936668-1.651207 9.3531609-4.210701l13.1097527-13.1097565c5.2839889-5.283989 5.64962-13.5285187.8079338-18.370205zm-18.6354828 30.8430748c-1.4743309 1.4743271-3.426384 2.2823334-5.5022545 2.2823334s-4.0338268-.8139038-5.5022564-2.2823334l-4.0161171-4.0043106c-3.0252609-3.0370712-3.0312366-7.9731369.0059757-11.0103455l17.1906624-17.1906623c1.5156555-1.5156555 3.5088844-2.2703857 5.502327-2.2704582 1.9932289 0 3.9865303.7548027 5.5021133 2.2703857l4.0102158 4.0102119c3.0371399 3.0371399 3.0313072 7.9732056 0 11.0045128z" fill="#cd5248"/><path d="m71.1455002 64.2611771-.868042.8679199c-1.4743042 1.4743652-3.4262085 2.2822266-5.5021973 2.2824707-2.0757484-.0002441-4.0338783-.8139648-5.5022621-2.2824707l-4.0159912-4.0043983c-3.0253906-3.0368652-3.031311-7.9731445.0057373-11.0102539l.2850342-.2850342c-.2414551-.3352051-.5068359-.6585693-.8084106-.960083l-4.0101929-4.0102539c-.7734985-.7734375-1.6722412-1.3461914-2.6310425-1.7241211-6.8476562 6.9484863-6.8162231 18.1567383.0878296 25.0607948l4.0101929 4.0102539c3.3614502 3.3614502 7.8258057 5.2192383 12.573307 5.2131348 4.7531738.0001221 9.2232056-1.8515625 12.5848389-5.2131348l.868042-.868042z" fill="#ededed"/><path d="m71.1455002 64.2611771-.868042.8679199c-1.4743042 1.4743652-3.4262085 2.2822266-5.5021973 2.2824707-2.0757484-.0002441-4.0338783-.8139648-5.5022621-2.2824707l-4.0159912-4.0043983c-3.0253906-3.0368652-3.031311-7.9731445.0057373-11.0102539l.2850342-.2850342c-.2414551-.3352051-.5068359-.6585693-.8084106-.960083l-1.6413574-1.6413574c-3.7578735 5.2210693-3.5956421 12.2351074.7199097 16.5506592l2.807312 2.7952919c2.335144 2.347168 5.5493164 3.5560303 9.0169106 3.402832 2.9316406-.1296387 5.7567749-1.2298584 8.1083984-3.1105957z" fill="#dbd8dd"/></svg>